<svg width="150" height="65" viewBox="0 0 150 65" fill="none" xmlns="http://www.w3.org/2000/svg">
<path fill-rule="evenodd" clip-rule="evenodd" d="M25 30H9.99998V35V40V45H4.99998V50V55.0001V60.0001H20V55.0001H25V50V45V40H30V35H25V30ZM25 35H15V40H25V35ZM20 55.0001H9.99998V50V45H20V50V55.0001ZM50 30H35V35V40V45H30V50V55.0001V60.0001H35V55.0001V50H40V55.0001H45V60.0001H50V55.0001H45V50V45H50V40H55V35H50V30ZM50 35V40H45V45H40V40V35H50ZM60 55.0001V60.0001H55V55.0001V50V45H60V50V55.0001ZM60 45V40V35V30H65V35V40V45H60ZM100 60.0001V55.0001V50V45H105V50H110V55.0001V60.0001H115V55.0001V50H110V45V40H115V35H120V30H115V35H110V40H105V35V30H100V35V40V45H95V50V55.0001V60.0001H100ZM85 60.0001V55.0001H90V50H85V55.0001H75V50V45H80V40V35H90V40H95V35H90V30H80V35H75V40V45H70V50V55.0001H75V60.0001H85ZM125 30H145V35V40H140V35H125V30ZM130 45V40H140V45H130ZM125 50V45H130V50H125ZM125 50V55.0001H140V60.0001H120V55.0001V50H125Z" fill="white"/>
<path fill-rule="evenodd" clip-rule="evenodd" d="M5 25H70V30H75V25H150V45H145V65H70V60H65V65H0V40H5V25ZM70 55H75V60H85V55H90V50H85V55H75V45H80V35H90V40H95V35H90V30H80V35H75V45H70V55ZM100 30V45H95V60H100V45H105V50H110V60H115V50H110V40H115V35H120V30H115V35H110V40H105V30H100ZM35 60V50H40V55H45V60H50V55H45V45H50V40H55V35H50V30H35V45H30V60H35ZM50 35V40H45V45H40V35H50ZM25 30V35H15V40H25V55H20V45H10V30H25ZM10 45H5V60H20V55H10V45ZM30 40H25V35H30V40ZM60 60V45H65V30H60V45H55V60H60ZM125 30V35H140V40H130V45H125V50H120V60H140V55H125V50H130V45H140V40H145V30H125Z" fill="black"/>
<rect x="4.99998" width="10" height="10" fill="#00AF4D"/>
<rect x="45" width="10" height="10" fill="#00BED3"/>
<rect x="30.0001" y="10" width="10" height="10" fill="#F7D112"/>
<rect x="30.0001" width="10" height="10" fill="#F7D112"/>
<rect x="4.99998" y="10" width="20" height="10" fill="#00AF4D"/>
<rect x="45" y="10" width="20" height="10" fill="#00BED3"/>
</svg>
