<svg width="20" height="21" viewBox="0 0 20 21" fill="none" xmlns="http://www.w3.org/2000/svg">
<rect x="9" y="0.0981445" width="1" height="1" fill="white"/>
<rect x="7" y="0.0981445" width="1" height="1" fill="white"/>
<rect x="5" y="0.0981445" width="1" height="1" fill="white"/>
<rect x="3" y="0.0981445" width="1" height="1" fill="white"/>
<rect x="11" y="0.0981445" width="1" height="1" fill="white"/>
<rect x="13" y="0.0981445" width="1" height="1" fill="white"/>
<rect x="15" y="0.0981445" width="1" height="1" fill="white"/>
<rect x="10" y="0.0981445" width="1" height="1" fill="white"/>
<rect x="8" y="0.0981445" width="1" height="1" fill="white"/>
<rect x="6" y="0.0981445" width="1" height="1" fill="white"/>
<rect x="4" y="0.0981445" width="1" height="1" fill="white"/>
<rect x="12" y="0.0981445" width="1" height="1" fill="white"/>
<rect x="14" y="0.0981445" width="1" height="1" fill="white"/>
<rect x="16" y="0.0981445" width="1" height="1" fill="white"/>
<rect x="17" y="1.09814" width="1" height="1" fill="white"/>
<rect x="18" y="2.09814" width="1" height="1" fill="white"/>
<rect x="19" y="3.09814" width="1" height="1" fill="white"/>
<rect x="17" y="16.0981" width="1" height="1" fill="white"/>
<rect x="16" y="17.0981" width="1" height="1" fill="white"/>
<rect x="15" y="18.0981" width="1" height="1" fill="white"/>
<rect x="13" y="18.0981" width="1" height="1" fill="white"/>
<rect x="11" y="18.0981" width="1" height="1" fill="white"/>
<rect x="9" y="18.0981" width="1" height="1" fill="white"/>
<rect x="7" y="18.0981" width="1" height="1" fill="white"/>
<rect x="5" y="18.0981" width="1" height="1" fill="white"/>
<rect x="3" y="18.0981" width="1" height="1" fill="white"/>
<rect x="2" y="17.0981" width="1" height="1" fill="white"/>
<rect x="1" y="16.0981" width="1" height="1" fill="white"/>
<rect x="1" y="6.09814" width="1" height="1" fill="white"/>
<rect x="19" y="6.09814" width="1" height="1" fill="white"/>
<rect x="1" y="10.0981" width="1" height="1" fill="white"/>
<rect x="19" y="10.0981" width="1" height="1" fill="white"/>
<rect x="1" y="14.0981" width="1" height="1" fill="white"/>
<rect x="19" y="14.0981" width="1" height="1" fill="white"/>
<rect x="10" y="6.09814" width="1" height="1" fill="white"/>
<rect x="11" y="6.09814" width="1" height="1" fill="white"/>
<rect x="14" y="10.0981" width="1" height="1" fill="white"/>
<rect x="10" y="14.0981" width="1" height="1" fill="white"/>
<rect x="11" y="14.0981" width="1" height="1" fill="white"/>
<rect x="6" y="10.0981" width="1" height="1" fill="white"/>
<rect x="1" y="4.09814" width="1" height="1" fill="white"/>
<rect x="19" y="4.09814" width="1" height="1" fill="white"/>
<rect x="1" y="8.09814" width="1" height="1" fill="white"/>
<rect x="19" y="8.09814" width="1" height="1" fill="white"/>
<rect x="1" y="12.0981" width="1" height="1" fill="white"/>
<rect x="19" y="12.0981" width="1" height="1" fill="white"/>
<rect x="2" y="3.09814" width="1" height="1" fill="white"/>
<rect x="3" y="2.09814" width="1" height="1" fill="white"/>
<rect y="7.09814" width="1" height="1" fill="white"/>
<rect x="18" y="7.09814" width="1" height="1" fill="white"/>
<rect y="11.0981" width="1" height="1" fill="white"/>
<rect x="18" y="11.0981" width="1" height="1" fill="white"/>
<rect y="15.0981" width="1" height="1" fill="white"/>
<rect x="18" y="15.0981" width="1" height="1" fill="white"/>
<rect y="5.09814" width="1" height="1" fill="white"/>
<rect x="18" y="5.09814" width="1" height="1" fill="white"/>
<rect y="9.09814" width="1" height="1" fill="white"/>
<rect x="18" y="9.09814" width="1" height="1" fill="white"/>
<rect y="13.0981" width="1" height="1" fill="white"/>
<rect x="18" y="13.0981" width="1" height="1" fill="white"/>
<rect x="9" y="5.09814" width="1" height="1" fill="white"/>
<rect x="8" y="5.09814" width="1" height="1" fill="white"/>
<rect x="13" y="9.09814" width="1" height="1" fill="white"/>
<rect x="9" y="13.0981" width="1" height="1" fill="white"/>
<rect x="8" y="13.0981" width="1" height="1" fill="white"/>
<rect x="5" y="9.09814" width="1" height="1" fill="white"/>
<rect y="3.09814" width="1" height="1" fill="white"/>
<rect x="1" y="2.09814" width="1" height="1" fill="white"/>
<rect x="2" y="1.09814" width="1" height="1" fill="white"/>
<rect x="9" y="1.09814" width="1" height="1" fill="white"/>
<rect x="7" y="1.09814" width="1" height="1" fill="white"/>
<rect x="5" y="1.09814" width="1" height="1" fill="white"/>
<rect x="3" y="1.09814" width="1" height="1" fill="white"/>
<rect x="11" y="1.09814" width="1" height="1" fill="white"/>
<rect x="13" y="1.09814" width="1" height="1" fill="white"/>
<rect x="15" y="1.09814" width="1" height="1" fill="white"/>
<rect x="16" y="2.09814" width="1" height="1" fill="white"/>
<rect x="17" y="3.09814" width="1" height="1" fill="white"/>
<rect x="18" y="16.0981" width="1" height="1" fill="white"/>
<rect x="17" y="17.0981" width="1" height="1" fill="white"/>
<rect x="16" y="18.0981" width="1" height="1" fill="white"/>
<rect x="14" y="18.0981" width="1" height="1" fill="white"/>
<rect x="12" y="18.0981" width="1" height="1" fill="white"/>
<rect x="10" y="18.0981" width="1" height="1" fill="white"/>
<rect x="8" y="18.0981" width="1" height="1" fill="white"/>
<rect x="6" y="18.0981" width="1" height="1" fill="white"/>
<rect x="4" y="18.0981" width="1" height="1" fill="white"/>
<rect x="3" y="17.0981" width="1" height="1" fill="white"/>
<rect x="2" y="16.0981" width="1" height="1" fill="white"/>
<rect x="1" y="7.09814" width="1" height="1" fill="white"/>
<rect x="19" y="7.09814" width="1" height="1" fill="white"/>
<rect x="1" y="11.0981" width="1" height="1" fill="white"/>
<rect x="19" y="11.0981" width="1" height="1" fill="white"/>
<rect x="1" y="15.0981" width="1" height="1" fill="white"/>
<rect x="19" y="15.0981" width="1" height="1" fill="white"/>
<rect x="1" y="5.09814" width="1" height="1" fill="white"/>
<rect x="19" y="5.09814" width="1" height="1" fill="white"/>
<rect x="1" y="9.09814" width="1" height="1" fill="white"/>
<rect x="19" y="9.09814" width="1" height="1" fill="white"/>
<rect x="1" y="13.0981" width="1" height="1" fill="white"/>
<rect x="19" y="13.0981" width="1" height="1" fill="white"/>
<rect x="10" y="5.09814" width="1" height="1" fill="white"/>
<rect x="11" y="5.09814" width="1" height="1" fill="white"/>
<rect x="14" y="9.09814" width="1" height="1" fill="white"/>
<rect x="13" y="8.09814" width="1" height="1" fill="white"/>
<rect x="14" y="8.09814" width="1" height="1" fill="white"/>
<rect x="13" y="11.0981" width="1" height="1" fill="white"/>
<rect x="14" y="11.0981" width="1" height="1" fill="white"/>
<rect x="5" y="11.0981" width="1" height="1" fill="white"/>
<rect x="6" y="11.0981" width="1" height="1" fill="white"/>
<rect x="5" y="8.09814" width="1" height="1" fill="white"/>
<rect x="6" y="7.09814" width="1" height="1" fill="white"/>
<rect x="6" y="12.0981" width="1" height="1" fill="white"/>
<rect x="11" y="7.09814" width="1" height="1" fill="white"/>
<rect x="11" y="12.0981" width="1" height="1" fill="white"/>
<rect x="8" y="7.09814" width="1" height="1" fill="white"/>
<rect x="8" y="12.0981" width="1" height="1" fill="white"/>
<rect x="13" y="7.09814" width="1" height="1" fill="white"/>
<rect x="13" y="12.0981" width="1" height="1" fill="white"/>
<rect x="6" y="8.09814" width="1" height="1" fill="white"/>
<rect x="7" y="7.09814" width="1" height="1" fill="white"/>
<rect x="7" y="12.0981" width="1" height="1" fill="white"/>
<rect x="12" y="7.09814" width="1" height="1" fill="white"/>
<rect x="12" y="12.0981" width="1" height="1" fill="white"/>
<rect x="10" y="13.0981" width="1" height="1" fill="white"/>
<rect x="6" y="9.09814" width="1" height="1" fill="white"/>
<rect x="7" y="8.09814" width="1" height="1" fill="white"/>
<rect x="7" y="11.0981" width="1" height="1" fill="white"/>
<rect x="12" y="8.09814" width="1" height="1" fill="white"/>
<rect x="12" y="11.0981" width="1" height="1" fill="white"/>
<rect x="7" y="6.09814" width="1" height="1" fill="white"/>
<rect x="7" y="13.0981" width="1" height="1" fill="white"/>
<rect x="12" y="6.09814" width="1" height="1" fill="white"/>
<rect x="15" y="3.09814" width="1" height="1" fill="white"/>
<rect x="14" y="4.09814" width="1" height="1" fill="white"/>
<rect x="15" y="5.09814" width="1" height="1" fill="white"/>
<rect x="16" y="4.09814" width="1" height="1" fill="white"/>
<rect x="15" y="4.09814" width="1" height="1" fill="white"/>
<rect x="12" y="13.0981" width="1" height="1" fill="white"/>
<rect x="8" y="6.09814" width="1" height="1" fill="white"/>
<rect x="1" y="3.09814" width="1" height="1" fill="white"/>
<rect x="2" y="2.09814" width="1" height="1" fill="white"/>
<rect x="15" y="19.0981" width="1" height="1" fill="white"/>
<rect x="13" y="19.0981" width="1" height="1" fill="white"/>
<rect x="11" y="19.0981" width="1" height="1" fill="white"/>
<rect x="9" y="19.0981" width="1" height="1" fill="white"/>
<rect x="7" y="19.0981" width="1" height="1" fill="white"/>
<rect x="5" y="19.0981" width="1" height="1" fill="white"/>
<rect x="3" y="19.0981" width="1" height="1" fill="white"/>
<rect x="2" y="18.0981" width="1" height="1" fill="white"/>
<rect x="1" y="17.0981" width="1" height="1" fill="white"/>
<rect y="16.0981" width="1" height="1" fill="white"/>
<rect y="6.09814" width="1" height="1" fill="white"/>
<rect x="18" y="6.09814" width="1" height="1" fill="white"/>
<rect y="10.0981" width="1" height="1" fill="white"/>
<rect x="18" y="10.0981" width="1" height="1" fill="white"/>
<rect y="14.0981" width="1" height="1" fill="white"/>
<rect x="18" y="14.0981" width="1" height="1" fill="white"/>
<rect x="9" y="6.09814" width="1" height="1" fill="white"/>
<rect x="13" y="10.0981" width="1" height="1" fill="white"/>
<rect x="11" y="13.0981" width="1" height="1" fill="white"/>
<rect x="9" y="14.0981" width="1" height="1" fill="white"/>
<rect x="8" y="14.0981" width="1" height="1" fill="white"/>
<rect x="5" y="10.0981" width="1" height="1" fill="white"/>
<rect y="4.09814" width="1" height="1" fill="white"/>
<rect x="18" y="4.09814" width="1" height="1" fill="white"/>
<rect y="8.09814" width="1" height="1" fill="white"/>
<rect x="18" y="8.09814" width="1" height="1" fill="white"/>
<rect y="12.0981" width="1" height="1" fill="white"/>
<rect x="18" y="12.0981" width="1" height="1" fill="white"/>
<rect x="10" y="1.09814" width="1" height="1" fill="white"/>
<rect x="8" y="1.09814" width="1" height="1" fill="white"/>
<rect x="6" y="1.09814" width="1" height="1" fill="white"/>
<rect x="4" y="1.09814" width="1" height="1" fill="white"/>
<rect x="12" y="1.09814" width="1" height="1" fill="white"/>
<rect x="14" y="1.09814" width="1" height="1" fill="white"/>
<rect x="16" y="1.09814" width="1" height="1" fill="white"/>
<rect x="17" y="2.09814" width="1" height="1" fill="white"/>
<rect x="18" y="3.09814" width="1" height="1" fill="white"/>
<rect x="19" y="16.0981" width="1" height="1" fill="white"/>
<rect x="18" y="17.0981" width="1" height="1" fill="white"/>
<rect x="17" y="18.0981" width="1" height="1" fill="white"/>
<rect x="16" y="19.0981" width="1" height="1" fill="white"/>
<rect x="14" y="19.0981" width="1" height="1" fill="white"/>
<rect x="12" y="19.0981" width="1" height="1" fill="white"/>
<rect x="10" y="19.0981" width="1" height="1" fill="white"/>
<rect x="8" y="19.0981" width="1" height="1" fill="white"/>
<rect x="6" y="19.0981" width="1" height="1" fill="white"/>
<rect x="4" y="19.0981" width="1" height="1" fill="white"/>
</svg>
