<svg width="20" height="21" viewBox="0 0 20 21" fill="none" xmlns="http://www.w3.org/2000/svg">
<g clip-path="url(#clip0_21_688)">
<rect x="2" y="0.0981445" width="16" height="1" fill="white"/>
<rect x="2" y="19.0981" width="16" height="1" fill="white"/>
<rect x="3" y="1.09814" width="15" height="1" fill="white"/>
<rect x="15" y="2.09814" width="3" height="1" fill="white"/>
<rect x="15" y="17.0981" width="3" height="1" fill="white"/>
<rect x="16" y="3.09814" width="2" height="1" fill="white"/>
<rect x="16" y="16.0981" width="2" height="1" fill="white"/>
<rect x="17" y="4.09814" width="1" height="1" fill="white"/>
<rect x="17" y="15.0981" width="1" height="1" fill="white"/>
<rect x="14" y="7.09814" width="1" height="1" fill="white"/>
<rect x="14" y="6.09814" width="1" height="1" fill="white"/>
<rect x="17" y="5.09814" width="1" height="1" fill="white"/>
<rect x="17" y="14.0981" width="1" height="1" fill="white"/>
<rect x="14" y="13.0981" width="1" height="1" fill="white"/>
<rect x="14" y="12.0981" width="1" height="1" fill="white"/>
<rect x="13" y="8.09814" width="2" height="1" fill="white"/>
<rect x="13" y="11.0981" width="2" height="1" fill="white"/>
<rect x="8" y="9.09814" width="7" height="1" fill="white"/>
<rect x="8" y="10.0981" width="7" height="1" fill="white"/>
<rect x="3" y="18.0981" width="15" height="1" fill="white"/>
<rect x="4" y="2.09814" width="4" height="16" fill="white"/>
</g>
<defs>
<clipPath id="clip0_21_688">
<rect width="20" height="20" fill="white" transform="translate(0 0.0981445)"/>
</clipPath>
</defs>
</svg>
