<svg width="119" height="936" viewBox="0 0 119 936" fill="none" xmlns="http://www.w3.org/2000/svg">
<rect width="54" height="6.00002" transform="matrix(-1 0 0 1 83 48.0001)" fill="#009247"/>
<rect width="42" height="6.00002" transform="matrix(-1 0 0 1 77 36.0001)" fill="#009247"/>
<rect width="30" height="6.00002" transform="matrix(-1 0 0 1 70.9998 24.0001)" fill="#009247"/>
<rect width="30" height="6.00002" transform="matrix(-1 0 0 1 70.9998 66.0001)" fill="#009247"/>
<rect width="18" height="6.00002" transform="matrix(-1 0 0 1 65 12)" fill="#009247"/>
<rect width="6" height="6.00002" transform="matrix(-1 0 0 1 59 0)" fill="#009247"/>
<rect width="6" height="6.00002" transform="matrix(-1 0 0 1 59 6)" fill="#009247"/>
<rect width="6" height="6.00002" transform="matrix(-1 0 0 1 59 18)" fill="#009247"/>
<rect width="6" height="6.00002" transform="matrix(-1 0 0 1 59 30.0001)" fill="#009247"/>
<rect width="6" height="6.00002" transform="matrix(-1 0 0 1 59 42.0001)" fill="#009247"/>
<rect width="6" height="6.00002" transform="matrix(-1 0 0 1 59 54.0001)" fill="#009247"/>
<rect width="6" height="6.00002" transform="matrix(-1 0 0 1 59 60.0001)" fill="#009247"/>
<rect width="54" height="6.00002" transform="matrix(-1 0 0 1 54.2499 360)" fill="#009247"/>
<rect width="42" height="6.00002" transform="matrix(-1 0 0 1 48.2499 348)" fill="#009247"/>
<rect width="30" height="6.00002" transform="matrix(-1 0 0 1 42.2496 336)" fill="#009247"/>
<rect width="30" height="6.00002" transform="matrix(-1 0 0 1 42.2496 378)" fill="#009247"/>
<rect width="18" height="6.00002" transform="matrix(-1 0 0 1 36.2499 324)" fill="#009247"/>
<rect width="6" height="6.00002" transform="matrix(-1 0 0 1 30.2499 312)" fill="#009247"/>
<rect width="6" height="6.00002" transform="matrix(-1 0 0 1 30.2499 318)" fill="#009247"/>
<rect width="6" height="6.00002" transform="matrix(-1 0 0 1 30.2499 330)" fill="#009247"/>
<rect width="6" height="6.00002" transform="matrix(-1 0 0 1 30.2499 342)" fill="#009247"/>
<rect width="6" height="6.00002" transform="matrix(-1 0 0 1 30.2499 354)" fill="#009247"/>
<rect width="6" height="6.00002" transform="matrix(-1 0 0 1 30.2499 366)" fill="#009247"/>
<rect width="6" height="6.00002" transform="matrix(-1 0 0 1 30.2499 372)" fill="#009247"/>
<rect width="54" height="6.00002" transform="matrix(-1 0 0 1 119 816)" fill="#009247"/>
<rect width="42" height="6.00002" transform="matrix(-1 0 0 1 113 804)" fill="#009247"/>
<rect width="30" height="6.00002" transform="matrix(-1 0 0 1 107 792)" fill="#009247"/>
<rect width="30" height="6.00002" transform="matrix(-1 0 0 1 107 834)" fill="#009247"/>
<rect width="18" height="6.00002" transform="matrix(-1 0 0 1 101 780)" fill="#009247"/>
<rect width="6" height="6.00002" transform="matrix(-1 0 0 1 95 768)" fill="#009247"/>
<rect width="6" height="6.00002" transform="matrix(-1 0 0 1 95 774)" fill="#009247"/>
<rect width="6" height="6.00002" transform="matrix(-1 0 0 1 95 786)" fill="#009247"/>
<rect width="6" height="6.00002" transform="matrix(-1 0 0 1 95 798)" fill="#009247"/>
<rect width="6" height="6.00002" transform="matrix(-1 0 0 1 95 810)" fill="#009247"/>
<rect width="6" height="6.00002" transform="matrix(-1 0 0 1 95 822)" fill="#009247"/>
<rect width="6" height="6.00002" transform="matrix(-1 0 0 1 95 828)" fill="#009247"/>
</svg>
