<svg width="81" height="936" viewBox="0 0 81 936" fill="none" xmlns="http://www.w3.org/2000/svg">
<rect width="54" height="6.00002" transform="matrix(-1 0 0 1 81.0002 656.511)" fill="#009247"/>
<rect width="42" height="6.00002" transform="matrix(-1 0 0 1 75.0002 644.511)" fill="#009247"/>
<rect width="30" height="6.00002" transform="matrix(-1 0 0 1 69 632.511)" fill="#009247"/>
<rect width="30" height="6.00002" transform="matrix(-1 0 0 1 69 674.511)" fill="#009247"/>
<rect width="18" height="6.00002" transform="matrix(-1 0 0 1 63.0002 620.511)" fill="#009247"/>
<rect width="6" height="6.00002" transform="matrix(-1 0 0 1 57.0002 608.511)" fill="#009247"/>
<rect width="6" height="6.00002" transform="matrix(-1 0 0 1 57.0002 614.511)" fill="#009247"/>
<rect width="6" height="6.00002" transform="matrix(-1 0 0 1 57.0002 626.511)" fill="#009247"/>
<rect width="6" height="6.00002" transform="matrix(-1 0 0 1 57.0002 638.511)" fill="#009247"/>
<rect width="6" height="6.00002" transform="matrix(-1 0 0 1 57.0002 650.511)" fill="#009247"/>
<rect width="6" height="6.00002" transform="matrix(-1 0 0 1 57.0002 662.511)" fill="#009247"/>
<rect width="6" height="6.00002" transform="matrix(-1 0 0 1 57.0002 668.511)" fill="#009247"/>
<rect width="54" height="6.00002" transform="matrix(-1 0 0 1 54.0002 129.546)" fill="#009247"/>
<rect width="42" height="6.00002" transform="matrix(-1 0 0 1 48.0002 117.546)" fill="#009247"/>
<rect width="30" height="6.00002" transform="matrix(-1 0 0 1 42 105.546)" fill="#009247"/>
<rect width="30" height="6.00002" transform="matrix(-1 0 0 1 42 147.546)" fill="#009247"/>
<rect width="18" height="6.00002" transform="matrix(-1 0 0 1 36.0002 93.5463)" fill="#009247"/>
<rect width="6" height="6.00002" transform="matrix(-1 0 0 1 30.0002 81.5463)" fill="#009247"/>
<rect width="6" height="6.00002" transform="matrix(-1 0 0 1 30.0002 87.5463)" fill="#009247"/>
<rect width="6" height="6.00002" transform="matrix(-1 0 0 1 30.0002 99.5463)" fill="#009247"/>
<rect width="6" height="6.00002" transform="matrix(-1 0 0 1 30.0002 111.546)" fill="#009247"/>
<rect width="6" height="6.00002" transform="matrix(-1 0 0 1 30.0002 123.546)" fill="#009247"/>
<rect width="6" height="6.00002" transform="matrix(-1 0 0 1 30.0002 135.546)" fill="#009247"/>
<rect width="6" height="6.00002" transform="matrix(-1 0 0 1 30.0002 141.546)" fill="#009247"/>
</svg>
